<svg viewBox="0 0 181 166" fill="none" xmlns="http://www.w3.org/2000/svg">
<path d="M160.032 1H20.7147C9.82656 1 1 9.61336 1 20.2385V145.929C1 156.554 9.82656 165.168 20.7147 165.168H160.032C170.92 165.168 179.747 156.554 179.747 145.929V20.2385C179.747 9.61336 170.92 1 160.032 1Z" fill="url(#paint0_linear_22_2)" stroke="#8D8D8D"/>
<path d="M147.546 11.9619H31.8779C22.7666 11.9619 15.3805 19.1697 15.3805 28.0609V133.241C15.3805 142.132 22.7666 149.34 31.8779 149.34H147.546C156.657 149.34 164.043 142.132 164.043 133.241V28.0609C164.043 19.1697 156.657 11.9619 147.546 11.9619Z" fill="url(#paint1_linear_22_2)" stroke="white" stroke-width="0.83429"/>
<path d="M56.5455 104.727C53.1818 104.727 50.2803 103.985 47.8409 102.5C45.4167 101 43.5455 98.9091 42.2273 96.2273C40.9242 93.5303 40.2727 90.3939 40.2727 86.8182C40.2727 83.2424 40.9242 80.0909 42.2273 77.3636C43.5455 74.6212 45.3788 72.4848 47.7273 70.9545C50.0909 69.4091 52.8485 68.6364 56 68.6364C57.8182 68.6364 59.6136 68.9394 61.3864 69.5455C63.1591 70.1515 64.7727 71.1364 66.2273 72.5C67.6818 73.8485 68.8409 75.6364 69.7045 77.8636C70.5682 80.0909 71 82.8333 71 86.0909V88.3636H44.0909V83.7273H65.5455C65.5455 81.7576 65.1515 80 64.3636 78.4545C63.5909 76.9091 62.4848 75.6894 61.0455 74.7955C59.6212 73.9015 57.9394 73.4545 56 73.4545C53.8636 73.4545 52.0152 73.9848 50.4545 75.0455C48.9091 76.0909 47.7197 77.4545 46.8864 79.1364C46.053 80.8182 45.6364 82.6212 45.6364 84.5455V87.6364C45.6364 90.2727 46.0909 92.5076 47 94.3409C47.9242 96.1591 49.2045 97.5455 50.8409 98.5C52.4773 99.4394 54.3788 99.9091 56.5455 99.9091C57.9545 99.9091 59.2273 99.7121 60.3636 99.3182C61.5152 98.9091 62.5076 98.303 63.3409 97.5C64.1742 96.6818 64.8182 95.6667 65.2727 94.4545L70.4545 95.9091C69.9091 97.6667 68.9924 99.2121 67.7045 100.545C66.4167 101.864 64.8258 102.894 62.9318 103.636C61.0379 104.364 58.9091 104.727 56.5455 104.727ZM103.886 76.9091L99.0682 78.2727C98.7652 77.4697 98.3182 76.6894 97.7273 75.9318C97.1515 75.1591 96.3636 74.5227 95.3636 74.0227C94.3636 73.5227 93.0833 73.2727 91.5227 73.2727C89.3864 73.2727 87.6061 73.7652 86.1818 74.75C84.7727 75.7197 84.0682 76.9545 84.0682 78.4545C84.0682 79.7879 84.553 80.8409 85.5227 81.6136C86.4924 82.3864 88.0076 83.0303 90.0682 83.5455L95.25 84.8182C98.3712 85.5758 100.697 86.7348 102.227 88.2955C103.758 89.8409 104.523 91.8333 104.523 94.2727C104.523 96.2727 103.947 98.0606 102.795 99.6364C101.659 101.212 100.068 102.455 98.0227 103.364C95.9773 104.273 93.5985 104.727 90.8864 104.727C87.3258 104.727 84.3788 103.955 82.0455 102.409C79.7121 100.864 78.2348 98.6061 77.6136 95.6364L82.7045 94.3636C83.1894 96.2424 84.1061 97.6515 85.4545 98.5909C86.8182 99.5303 88.5985 100 90.7955 100C93.2955 100 95.2803 99.4697 96.75 98.4091C98.2348 97.3333 98.9773 96.0455 98.9773 94.5455C98.9773 93.3333 98.553 92.3182 97.7045 91.5C96.8561 90.6667 95.553 90.0455 93.7955 89.6364L87.9773 88.2727C84.7803 87.5152 82.4318 86.3409 80.9318 84.75C79.447 83.1439 78.7045 81.1364 78.7045 78.7273C78.7045 76.7576 79.2576 75.0152 80.3636 73.5C81.4848 71.9848 83.0076 70.7955 84.9318 69.9318C86.8712 69.0682 89.0682 68.6364 91.5227 68.6364C94.9773 68.6364 97.6894 69.3939 99.6591 70.9091C101.644 72.4242 103.053 74.4242 103.886 76.9091ZM126.778 104.727C123.506 104.727 120.688 103.955 118.324 102.409C115.96 100.864 114.142 98.7348 112.869 96.0227C111.597 93.3106 110.96 90.2121 110.96 86.7273C110.96 83.1818 111.612 80.053 112.915 77.3409C114.233 74.6136 116.066 72.4848 118.415 70.9545C120.778 69.4091 123.536 68.6364 126.688 68.6364C129.142 68.6364 131.354 69.0909 133.324 70C135.294 70.9091 136.907 72.1818 138.165 73.8182C139.422 75.4545 140.203 77.3636 140.506 79.5455H135.142C134.733 77.9545 133.824 76.5455 132.415 75.3182C131.021 74.0758 129.142 73.4545 126.778 73.4545C124.688 73.4545 122.854 74 121.278 75.0909C119.718 76.1667 118.498 77.6894 117.619 79.6591C116.756 81.6136 116.324 83.9091 116.324 86.5455C116.324 89.2424 116.748 91.5909 117.597 93.5909C118.46 95.5909 119.672 97.1439 121.233 98.25C122.809 99.3561 124.657 99.9091 126.778 99.9091C128.172 99.9091 129.438 99.6667 130.574 99.1818C131.71 98.697 132.672 98 133.46 97.0909C134.248 96.1818 134.809 95.0909 135.142 93.8182H140.506C140.203 95.8788 139.453 97.7348 138.256 99.3864C137.074 101.023 135.506 102.326 133.551 103.295C131.612 104.25 129.354 104.727 126.778 104.727Z" fill="black" fill-opacity="0.58"/>
<defs>
<linearGradient id="paint0_linear_22_2" x1="90.3697" y1="0.551111" x2="90.3697" y2="165.617" gradientUnits="userSpaceOnUse">
<stop stop-color="#D8D8D8"/>
<stop offset="1" stop-color="#A3A3A3"/>
</linearGradient>
<linearGradient id="paint1_linear_22_2" x1="30.0428" y1="80.646" x2="152.161" y2="80.646" gradientUnits="userSpaceOnUse">
<stop stop-color="#D7D7D7"/>
<stop offset="0.5" stop-color="#E7E7E7"/>
<stop offset="1" stop-color="#D7D7D7"/>
</linearGradient>
</defs>
</svg>
