<svg viewBox="0 0 181 166" fill="none" xmlns="http://www.w3.org/2000/svg">
<path d="M160.032 1H20.7147C9.82656 1 1 9.61336 1 20.2385V145.929C1 156.554 9.82656 165.168 20.7147 165.168H160.032C170.92 165.168 179.747 156.554 179.747 145.929V20.2385C179.747 9.61336 170.92 1 160.032 1Z" fill="url(#paint0_linear_18_35)" stroke="#8D8D8D"/>
<path d="M147.546 11.9619H31.878C22.7667 11.9619 15.3805 19.1697 15.3805 28.0609V133.241C15.3805 142.132 22.7667 149.34 31.878 149.34H147.546C156.657 149.34 164.043 142.132 164.043 133.241V28.0609C164.043 19.1697 156.657 11.9619 147.546 11.9619Z" fill="url(#paint1_linear_18_35)" stroke="white" stroke-width="0.83429"/>
<path d="M73.6364 104V57.4545H79.2727V80.5455H79.8182L100.727 57.4545H108.091L88.5455 78.4545L108.091 104H101.273L85.0909 82.3636L79.2727 88.9091V104H73.6364Z" fill="black" fill-opacity="0.58"/>
<defs>
<linearGradient id="paint0_linear_18_35" x1="90.3697" y1="0.551111" x2="90.3697" y2="165.617" gradientUnits="userSpaceOnUse">
<stop stop-color="#D8D8D8"/>
<stop offset="1" stop-color="#A3A3A3"/>
</linearGradient>
<linearGradient id="paint1_linear_18_35" x1="30.0429" y1="80.646" x2="152.161" y2="80.646" gradientUnits="userSpaceOnUse">
<stop stop-color="#D7D7D7"/>
<stop offset="0.5" stop-color="#E7E7E7"/>
<stop offset="1" stop-color="#D7D7D7"/>
</linearGradient>
</defs>
</svg>
