<svg viewBox="0 0 181 166" fill="none" xmlns="http://www.w3.org/2000/svg">
<path d="M160.032 1H20.7147C9.82656 1 1 9.61336 1 20.2385V145.929C1 156.554 9.82656 165.168 20.7147 165.168H160.032C170.92 165.168 179.747 156.554 179.747 145.929V20.2385C179.747 9.61336 170.92 1 160.032 1Z" fill="url(#paint0_linear_18_38)" stroke="#8D8D8D"/>
<path d="M147.546 11.9619H31.8779C22.7666 11.9619 15.3805 19.1697 15.3805 28.0609V133.241C15.3805 142.132 22.7666 149.34 31.8779 149.34H147.546C156.657 149.34 164.043 142.132 164.043 133.241V28.0609C164.043 19.1697 156.657 11.9619 147.546 11.9619Z" fill="url(#paint1_linear_18_38)" stroke="#F8F8F8" stroke-width="0.83429"/>
<path d="M60.0909 104.727C56.8182 104.727 54 103.955 51.6364 102.409C49.2727 100.864 47.4545 98.7348 46.1818 96.0227C44.9091 93.3106 44.2727 90.2121 44.2727 86.7273C44.2727 83.1818 44.9242 80.053 46.2273 77.3409C47.5455 74.6136 49.3788 72.4848 51.7273 70.9545C54.0909 69.4091 56.8485 68.6364 60 68.6364C62.4545 68.6364 64.6667 69.0909 66.6364 70C68.6061 70.9091 70.2197 72.1818 71.4773 73.8182C72.7348 75.4545 73.5152 77.3636 73.8182 79.5455H68.4545C68.0455 77.9545 67.1364 76.5455 65.7273 75.3182C64.3333 74.0758 62.4545 73.4545 60.0909 73.4545C58 73.4545 56.1667 74 54.5909 75.0909C53.0303 76.1667 51.8106 77.6894 50.9318 79.6591C50.0682 81.6136 49.6364 83.9091 49.6364 86.5455C49.6364 89.2424 50.0606 91.5909 50.9091 93.5909C51.7727 95.5909 52.9848 97.1439 54.5455 98.25C56.1212 99.3561 57.9697 99.9091 60.0909 99.9091C61.4848 99.9091 62.75 99.6667 63.8864 99.1818C65.0227 98.697 65.9848 98 66.7727 97.0909C67.5606 96.1818 68.1212 95.0909 68.4545 93.8182H73.8182C73.5152 95.8788 72.7652 97.7348 71.5682 99.3864C70.3864 101.023 68.8182 102.326 66.8636 103.295C64.9242 104.25 62.6667 104.727 60.0909 104.727ZM96.8409 69.0909V73.6364H78.75V69.0909H96.8409ZM84.0227 60.7273H89.3864V94C89.3864 95.5152 89.6061 96.6515 90.0455 97.4091C90.5 98.1515 91.0758 98.6515 91.7727 98.9091C92.4848 99.1515 93.2348 99.2727 94.0227 99.2727C94.6136 99.2727 95.0985 99.2424 95.4773 99.1818C95.8561 99.1061 96.1591 99.0455 96.3864 99L97.4773 103.818C97.1136 103.955 96.6061 104.091 95.9545 104.227C95.303 104.379 94.4773 104.455 93.4773 104.455C91.9621 104.455 90.4773 104.129 89.0227 103.477C87.5833 102.826 86.3864 101.833 85.4318 100.5C84.4924 99.1667 84.0227 97.4848 84.0227 95.4545V60.7273ZM104.909 104V69.0909H110.091V74.3636H110.455C111.091 72.6364 112.242 71.2348 113.909 70.1591C115.576 69.0833 117.455 68.5455 119.545 68.5455C119.939 68.5455 120.432 68.553 121.023 68.5682C121.614 68.5833 122.061 68.6061 122.364 68.6364V74.0909C122.182 74.0455 121.765 73.9773 121.114 73.8864C120.477 73.7803 119.803 73.7273 119.091 73.7273C117.394 73.7273 115.879 74.0833 114.545 74.7955C113.227 75.4924 112.182 76.4621 111.409 77.7045C110.652 78.9318 110.273 80.3333 110.273 81.9091V104H104.909ZM134.085 57.4545V104H128.722V57.4545H134.085Z" fill="black" fill-opacity="0.58"/>
<defs>
<linearGradient id="paint0_linear_18_38" x1="90.3697" y1="0.551111" x2="90.3697" y2="165.617" gradientUnits="userSpaceOnUse">
<stop stop-color="#D8D8D8"/>
<stop offset="1" stop-color="#A3A3A3"/>
</linearGradient>
<linearGradient id="paint1_linear_18_38" x1="30.0428" y1="80.646" x2="152.161" y2="80.646" gradientUnits="userSpaceOnUse">
<stop stop-color="#D7D7D7"/>
<stop offset="0.5" stop-color="#E7E7E7"/>
<stop offset="1" stop-color="#D7D7D7"/>
</linearGradient>
</defs>
</svg>
