<svg width="250" height="84" viewBox="0 0 656 84" fill="none" xmlns="http://www.w3.org/2000/svg">
<rect x="409" y="71" width="45" height="13" fill="white"/>
<rect x="409" y="2" width="45" height="59" fill="white"/>
<path d="M420.696 49V13.96H426.696V28.024H436.104V13.96H442.104V49H436.104V33.592H426.696V49H420.696Z" fill="black"/>
<path d="M465.472 49.48C462.752 49.48 460.608 48.76 459.04 47.32C457.472 45.88 456.688 43.944 456.688 41.512C456.688 38.92 457.552 36.92 459.28 35.512C461.008 34.104 463.456 33.4 466.624 33.4H473.2V31.144C473.2 29.864 472.784 28.872 471.952 28.168C471.12 27.432 469.984 27.064 468.544 27.064C467.232 27.064 466.144 27.352 465.28 27.928C464.416 28.504 463.904 29.288 463.744 30.28H457.888C458.176 27.784 459.296 25.8 461.248 24.328C463.2 22.856 465.696 22.12 468.736 22.12C471.968 22.12 474.512 22.936 476.368 24.568C478.256 26.168 479.2 28.344 479.2 31.096V49H473.392V44.392H472.432L473.392 43.096C473.392 45.048 472.672 46.6 471.232 47.752C469.792 48.904 467.872 49.48 465.472 49.48ZM467.44 44.968C469.136 44.968 470.512 44.536 471.568 43.672C472.656 42.808 473.2 41.688 473.2 40.312V37.096H466.72C465.504 37.096 464.528 37.448 463.792 38.152C463.056 38.856 462.688 39.784 462.688 40.936C462.688 42.184 463.104 43.176 463.936 43.912C464.8 44.616 465.968 44.968 467.44 44.968ZM486.477 49V22.6H492.333V27.64H493.965L492.333 29.032C492.333 26.856 492.957 25.16 494.205 23.944C495.485 22.728 497.229 22.12 499.437 22.12C502.029 22.12 504.093 22.984 505.629 24.712C507.197 26.44 507.981 28.76 507.981 31.672V49H501.981V32.296C501.981 30.696 501.565 29.464 500.733 28.6C499.901 27.736 498.733 27.304 497.229 27.304C495.757 27.304 494.589 27.752 493.725 28.648C492.893 29.544 492.477 30.824 492.477 32.488V49H486.477ZM523.707 49.48C521.083 49.48 518.955 48.568 517.323 46.744C515.723 44.92 514.923 42.472 514.923 39.4V32.248C514.923 29.144 515.723 26.68 517.323 24.856C518.923 23.032 521.051 22.12 523.707 22.12C525.883 22.12 527.611 22.744 528.891 23.992C530.171 25.208 530.811 26.888 530.811 29.032L529.467 27.64H530.859L530.667 21.352V13.96H536.667V49H530.811V43.96H529.467L530.811 42.568C530.811 44.712 530.171 46.408 528.891 47.656C527.611 48.872 525.883 49.48 523.707 49.48ZM525.819 44.296C527.355 44.296 528.539 43.848 529.371 42.952C530.235 42.024 530.667 40.744 530.667 39.112V32.488C530.667 30.856 530.235 29.592 529.371 28.696C528.539 27.768 527.355 27.304 525.819 27.304C524.283 27.304 523.083 27.752 522.219 28.648C521.355 29.544 520.923 30.824 520.923 32.488V39.112C520.923 40.776 521.355 42.056 522.219 42.952C523.083 43.848 524.283 44.296 525.819 44.296ZM557 49.48C554.824 49.48 553.096 48.872 551.816 47.656C550.536 46.408 549.896 44.712 549.896 42.568L551.24 43.96H549.896V49H544.04V13.96H550.04V21.352L549.848 27.64H551.24L549.896 29.032C549.896 26.888 550.536 25.208 551.816 23.992C553.096 22.744 554.824 22.12 557 22.12C559.656 22.12 561.784 23.032 563.384 24.856C564.984 26.68 565.784 29.144 565.784 32.248V39.4C565.784 42.472 564.984 44.92 563.384 46.744C561.784 48.568 559.656 49.48 557 49.48ZM554.888 44.296C556.424 44.296 557.624 43.848 558.488 42.952C559.352 42.056 559.784 40.776 559.784 39.112V32.488C559.784 30.824 559.352 29.544 558.488 28.648C557.624 27.752 556.424 27.304 554.888 27.304C553.384 27.304 552.2 27.768 551.336 28.696C550.472 29.592 550.04 30.856 550.04 32.488V39.112C550.04 40.744 550.472 42.024 551.336 42.952C552.2 43.848 553.384 44.296 554.888 44.296ZM583.525 49.432C581.285 49.432 579.333 49.016 577.669 48.184C576.037 47.32 574.757 46.12 573.829 44.584C572.933 43.016 572.485 41.176 572.485 39.064V32.536C572.485 30.424 572.933 28.6 573.829 27.064C574.757 25.496 576.037 24.296 577.669 23.464C579.333 22.6 581.285 22.168 583.525 22.168C585.797 22.168 587.749 22.6 589.381 23.464C591.013 24.296 592.277 25.496 593.173 27.064C594.101 28.6 594.565 30.408 594.565 32.488V39.064C594.565 41.176 594.101 43.016 593.173 44.584C592.277 46.12 591.013 47.32 589.381 48.184C587.749 49.016 585.797 49.432 583.525 49.432ZM583.525 44.2C585.125 44.2 586.357 43.768 587.221 42.904C588.117 42.008 588.565 40.728 588.565 39.064V32.536C588.565 30.84 588.117 29.56 587.221 28.696C586.357 27.832 585.125 27.4 583.525 27.4C581.957 27.4 580.725 27.832 579.829 28.696C578.933 29.56 578.485 30.84 578.485 32.536V39.064C578.485 40.728 578.933 42.008 579.829 42.904C580.725 43.768 581.957 44.2 583.525 44.2ZM612.306 49.432C610.066 49.432 608.114 49.016 606.45 48.184C604.818 47.32 603.538 46.12 602.61 44.584C601.714 43.016 601.266 41.176 601.266 39.064V32.536C601.266 30.424 601.714 28.6 602.61 27.064C603.538 25.496 604.818 24.296 606.45 23.464C608.114 22.6 610.066 22.168 612.306 22.168C614.578 22.168 616.53 22.6 618.162 23.464C619.794 24.296 621.058 25.496 621.954 27.064C622.882 28.6 623.346 30.408 623.346 32.488V39.064C623.346 41.176 622.882 43.016 621.954 44.584C621.058 46.12 619.794 47.32 618.162 48.184C616.53 49.016 614.578 49.432 612.306 49.432ZM612.306 44.2C613.906 44.2 615.138 43.768 616.002 42.904C616.898 42.008 617.346 40.728 617.346 39.064V32.536C617.346 30.84 616.898 29.56 616.002 28.696C615.138 27.832 613.906 27.4 612.306 27.4C610.738 27.4 609.506 27.832 608.61 28.696C607.714 29.56 607.266 30.84 607.266 32.536V39.064C607.266 40.728 607.714 42.008 608.61 42.904C609.506 43.768 610.738 44.2 612.306 44.2ZM630.528 49V13.96H636.528V32.968H640.704L647.136 22.6H653.856L645.888 35.368L654 49H647.136L640.704 38.056H636.528V49H630.528Z" fill="white"/>
<path d="M14.352 51.48C11.184 51.48 8.656 50.568 6.768 48.744C4.88 46.888 3.936 44.376 3.936 41.208V24.6H9.12V41.208C9.12 43.032 9.584 44.456 10.512 45.48C11.44 46.472 12.72 46.968 14.352 46.968C16.016 46.968 17.312 46.472 18.24 45.48C19.2 44.456 19.68 43.032 19.68 41.208V24.6H24.864V41.208C24.864 44.376 23.904 46.888 21.984 48.744C20.096 50.568 17.552 51.48 14.352 51.48ZM42.2693 51.432C40.3813 51.432 38.7173 51.128 37.2773 50.52C35.8693 49.912 34.7493 49.08 33.9173 48.024C33.1173 46.936 32.6533 45.656 32.5253 44.184H37.7093C37.8373 45.048 38.3013 45.752 39.1013 46.296C39.9013 46.808 40.9573 47.064 42.2693 47.064H44.3333C45.9013 47.064 47.0853 46.744 47.8853 46.104C48.6853 45.464 49.0853 44.616 49.0853 43.56C49.0853 42.536 48.7173 41.736 47.9813 41.16C47.2773 40.552 46.2213 40.152 44.8133 39.96L41.4053 39.432C38.5893 38.984 36.5093 38.184 35.1653 37.032C33.8533 35.848 33.1973 34.104 33.1973 31.8C33.1973 29.368 33.9813 27.496 35.5493 26.184C37.1493 24.84 39.5013 24.168 42.6053 24.168H44.4293C47.1813 24.168 49.3733 24.808 51.0053 26.088C52.6693 27.336 53.6133 29.016 53.8373 31.128H48.6533C48.5253 30.36 48.0933 29.736 47.3573 29.256C46.6533 28.776 45.6773 28.536 44.4293 28.536H42.6053C41.1013 28.536 39.9973 28.824 39.2933 29.4C38.6213 29.944 38.2853 30.76 38.2853 31.848C38.2853 32.808 38.5893 33.528 39.1973 34.008C39.8053 34.488 40.7493 34.824 42.0293 35.016L45.5333 35.592C48.5093 36.008 50.6853 36.84 52.0613 38.088C53.4693 39.304 54.1733 41.08 54.1733 43.416C54.1733 45.944 53.3413 47.912 51.6773 49.32C50.0453 50.728 47.5973 51.432 44.3333 51.432H42.2693ZM71.9625 51.48C69.8185 51.48 67.9305 51.064 66.2985 50.232C64.6985 49.368 63.4665 48.168 62.6025 46.632C61.7385 45.096 61.3065 43.304 61.3065 41.256V34.344C61.3065 32.264 61.7385 30.472 62.6025 28.968C63.4665 27.432 64.6985 26.248 66.2985 25.416C67.9305 24.552 69.8185 24.12 71.9625 24.12C74.1385 24.12 76.0265 24.552 77.6265 25.416C79.2265 26.248 80.4585 27.432 81.3225 28.968C82.1865 30.472 82.6185 32.264 82.6185 34.344V39.048H66.2985V41.256C66.2985 43.208 66.7785 44.696 67.7385 45.72C68.7305 46.744 70.1545 47.256 72.0105 47.256C73.5145 47.256 74.7305 47 75.6585 46.488C76.5865 45.944 77.1625 45.16 77.3865 44.136H82.5225C82.1385 46.376 80.9865 48.168 79.0665 49.512C77.1465 50.824 74.7785 51.48 71.9625 51.48ZM77.6265 35.928V34.296C77.6265 32.376 77.1465 30.888 76.1865 29.832C75.2265 28.776 73.8185 28.248 71.9625 28.248C70.1385 28.248 68.7305 28.776 67.7385 29.832C66.7785 30.888 66.2985 32.392 66.2985 34.344V35.544L78.0105 35.496L77.6265 35.928ZM91.2398 51V24.6H96.2318V29.64H97.4798L95.8958 32.76C95.8958 29.912 96.5198 27.768 97.7678 26.328C99.0158 24.856 100.872 24.12 103.336 24.12C106.152 24.12 108.376 25 110.008 26.76C111.672 28.488 112.504 30.872 112.504 33.912V35.688H107.176V34.344C107.176 32.456 106.696 31.016 105.736 30.024C104.808 29 103.496 28.488 101.8 28.488C100.104 28.488 98.7758 29 97.8158 30.024C96.8878 31.048 96.4238 32.488 96.4238 34.344V51H91.2398ZM130.725 59.64C127.941 59.64 125.509 59.064 123.429 57.912C121.381 56.792 119.797 55.176 118.677 53.064C117.557 50.984 116.997 48.536 116.997 45.72V29.4C116.997 26.52 117.525 24.04 118.581 21.96C119.669 19.88 121.189 18.28 123.141 17.16C125.125 16.04 127.493 15.48 130.245 15.48C132.741 15.48 134.885 15.96 136.677 16.92C138.501 17.88 139.893 19.24 140.853 21C141.813 22.76 142.293 24.824 142.293 27.192V47.88H138.309L138.453 45.24H137.061L137.877 44.136C137.877 45.384 137.397 46.408 136.437 47.208C135.509 47.976 134.277 48.36 132.741 48.36C130.693 48.36 129.109 47.72 127.989 46.44C126.901 45.128 126.357 43.24 126.357 40.776V35.16C126.357 32.696 126.901 30.824 127.989 29.544C129.109 28.232 130.693 27.576 132.741 27.576C134.277 27.576 135.509 27.976 136.437 28.776C137.397 29.544 137.877 30.568 137.877 31.848L137.205 30.84H138.501L137.877 27.528V27.192C137.877 25.56 137.573 24.168 136.965 23.016C136.389 21.832 135.541 20.92 134.421 20.28C133.301 19.64 131.909 19.32 130.245 19.32C127.461 19.32 125.285 20.2 123.717 21.96C122.181 23.72 121.413 26.2 121.413 29.4V45.72C121.413 48.792 122.229 51.192 123.861 52.92C125.525 54.648 127.813 55.512 130.725 55.512H134.085V59.64H130.725ZM134.325 45C135.541 45 136.437 44.648 137.013 43.944C137.589 43.208 137.877 42.04 137.877 40.44V35.112C137.877 33.704 137.573 32.664 136.965 31.992C136.389 31.288 135.509 30.936 134.325 30.936C133.141 30.936 132.245 31.288 131.637 31.992C131.061 32.696 130.773 33.752 130.773 35.16V40.776C130.773 42.248 131.061 43.32 131.637 43.992C132.245 44.664 133.141 45 134.325 45ZM147.938 51V15.96H153.122V24.6L153.074 29.64H154.322L153.074 30.84C153.074 28.728 153.698 27.08 154.946 25.896C156.194 24.712 157.922 24.12 160.13 24.12C162.754 24.12 164.85 24.968 166.418 26.664C167.986 28.328 168.77 30.584 168.77 33.432V51H163.586V34.008C163.586 32.28 163.122 30.936 162.194 29.976C161.266 29.016 160.002 28.536 158.402 28.536C156.77 28.536 155.474 29.048 154.514 30.072C153.586 31.064 153.122 32.488 153.122 34.344V51H147.938ZM184.448 51.48C181.696 51.48 179.52 50.776 177.92 49.368C176.352 47.928 175.568 45.976 175.568 43.512C175.568 41.016 176.4 39.064 178.064 37.656C179.76 36.216 182.08 35.496 185.023 35.496H192.368V33.048C192.368 31.608 191.92 30.488 191.024 29.688C190.128 28.888 188.864 28.488 187.232 28.488C185.792 28.488 184.592 28.808 183.632 29.448C182.672 30.056 182.112 30.872 181.952 31.896H176.864C177.152 29.528 178.24 27.64 180.128 26.232C182.048 24.824 184.464 24.12 187.376 24.12C190.512 24.12 192.992 24.92 194.816 26.52C196.64 28.088 197.552 30.232 197.552 32.952V51H192.512V46.152H191.648L192.512 45.192C192.512 47.112 191.776 48.648 190.304 49.8C188.832 50.92 186.88 51.48 184.448 51.48ZM185.984 47.496C187.84 47.496 189.36 47.032 190.544 46.104C191.76 45.144 192.368 43.928 192.368 42.456V39H185.12C183.776 39 182.704 39.368 181.904 40.104C181.136 40.84 180.752 41.848 180.752 43.128C180.752 44.472 181.216 45.544 182.144 46.344C183.072 47.112 184.352 47.496 185.984 47.496ZM216.061 51.48C213.885 51.48 211.965 51.08 210.301 50.28C208.669 49.448 207.405 48.264 206.509 46.728C205.645 45.16 205.213 43.336 205.213 41.256V34.344C205.213 32.232 205.645 30.408 206.509 28.872C207.405 27.336 208.669 26.168 210.301 25.368C211.965 24.536 213.885 24.12 216.061 24.12C219.229 24.12 221.773 24.952 223.693 26.616C225.613 28.28 226.621 30.552 226.717 33.432H221.533C221.437 31.928 220.909 30.76 219.949 29.928C218.989 29.096 217.693 28.68 216.061 28.68C214.301 28.68 212.909 29.176 211.885 30.168C210.861 31.128 210.349 32.504 210.349 34.296V41.256C210.349 43.048 210.861 44.44 211.885 45.432C212.909 46.424 214.301 46.92 216.061 46.92C217.693 46.92 218.989 46.504 219.949 45.672C220.909 44.84 221.437 43.672 221.533 42.168H226.717C226.621 45.048 225.613 47.32 223.693 48.984C221.773 50.648 219.229 51.48 216.061 51.48ZM234.426 51V15.96H239.61V35.208H244.266L251.274 24.6H257.13L248.73 37.272L257.274 51H251.322L244.266 39.672H239.61V51H234.426ZM273.431 51.48C271.287 51.48 269.399 51.064 267.767 50.232C266.167 49.368 264.935 48.168 264.071 46.632C263.207 45.096 262.775 43.304 262.775 41.256V34.344C262.775 32.264 263.207 30.472 264.071 28.968C264.935 27.432 266.167 26.248 267.767 25.416C269.399 24.552 271.287 24.12 273.431 24.12C275.607 24.12 277.495 24.552 279.095 25.416C280.695 26.248 281.927 27.432 282.791 28.968C283.655 30.472 284.087 32.264 284.087 34.344V39.048H267.767V41.256C267.767 43.208 268.247 44.696 269.207 45.72C270.199 46.744 271.623 47.256 273.479 47.256C274.983 47.256 276.199 47 277.127 46.488C278.055 45.944 278.631 45.16 278.855 44.136H283.991C283.607 46.376 282.455 48.168 280.535 49.512C278.615 50.824 276.247 51.48 273.431 51.48ZM279.095 35.928V34.296C279.095 32.376 278.615 30.888 277.655 29.832C276.695 28.776 275.287 28.248 273.431 28.248C271.607 28.248 270.199 28.776 269.207 29.832C268.247 30.888 267.767 32.392 267.767 34.344V35.544L279.479 35.496L279.095 35.928ZM292.709 51V24.6H297.701V29.64H298.949L297.365 32.76C297.365 29.912 297.989 27.768 299.237 26.328C300.485 24.856 302.341 24.12 304.805 24.12C307.621 24.12 309.845 25 311.477 26.76C313.141 28.488 313.973 30.872 313.973 33.912V35.688H308.645V34.344C308.645 32.456 308.165 31.016 307.205 30.024C306.277 29 304.965 28.488 303.269 28.488C301.573 28.488 300.245 29 299.285 30.024C298.357 31.048 297.893 32.488 297.893 34.344V51H292.709Z" fill="#028107"/>
<path d="M330.994 31.752C329.746 31.752 328.722 31.4 327.922 30.696C327.154 29.992 326.77 29.064 326.77 27.912C326.77 26.76 327.154 25.848 327.922 25.176C328.722 24.472 329.746 24.12 330.994 24.12C332.274 24.12 333.298 24.472 334.066 25.176C334.834 25.848 335.218 26.76 335.218 27.912C335.218 29.064 334.834 29.992 334.066 30.696C333.298 31.4 332.274 31.752 330.994 31.752ZM330.994 51.48C329.746 51.48 328.722 51.128 327.922 50.424C327.154 49.72 326.77 48.808 326.77 47.688C326.77 46.504 327.154 45.576 327.922 44.904C328.722 44.2 329.746 43.848 330.994 43.848C332.274 43.848 333.298 44.2 334.066 44.904C334.834 45.576 335.218 46.504 335.218 47.688C335.218 48.808 334.834 49.72 334.066 50.424C333.298 51.128 332.274 51.48 330.994 51.48ZM387.212 57.72V51.432C384.14 51.176 381.724 50.2 379.964 48.504C378.204 46.776 377.308 44.52 377.276 41.736H382.412C382.412 43.112 382.828 44.248 383.66 45.144C384.524 46.008 385.708 46.552 387.212 46.776V35.448L386.108 35.16C383.548 34.424 381.564 33.176 380.156 31.416C378.78 29.624 378.092 27.496 378.092 25.032C378.092 22.376 378.908 20.2 380.54 18.504C382.172 16.808 384.396 15.832 387.212 15.576V9.24H390.14V15.528C392.956 15.784 395.196 16.76 396.86 18.456C398.524 20.12 399.372 22.296 399.404 24.984H394.22C394.22 23.672 393.868 22.6 393.164 21.768C392.46 20.904 391.452 20.36 390.14 20.136V30.936L391.868 31.464C394.428 32.168 396.396 33.416 397.772 35.208C399.148 37 399.836 39.144 399.836 41.64C399.836 44.36 398.956 46.6 397.196 48.36C395.468 50.12 393.116 51.144 390.14 51.432V57.72H387.212ZM390.14 46.824C391.58 46.6 392.7 46.056 393.5 45.192C394.3 44.328 394.7 43.208 394.7 41.832C394.7 40.424 394.252 39.224 393.356 38.232C392.492 37.24 391.276 36.616 389.708 36.36L390.14 35.352V46.824ZM387.212 32.376V20.136C385.932 20.36 384.94 20.872 384.236 21.672C383.564 22.44 383.228 23.448 383.228 24.696C383.228 26.232 383.724 27.528 384.716 28.584C385.74 29.608 387.18 30.216 389.036 30.408L387.212 32.376Z" fill="white"/>
<path d="M348.159 38.76V35.208C348.159 33.256 348.751 31.704 349.935 30.552C351.151 29.4 352.751 28.824 354.735 28.824C355.983 28.824 357.023 29.032 357.855 29.448C358.719 29.864 359.439 30.392 360.015 31.032C360.623 31.672 361.151 32.312 361.599 32.952C362.079 33.592 362.559 34.136 363.039 34.584C363.551 35 364.127 35.208 364.767 35.208C365.439 35.208 365.951 35 366.303 34.584C366.655 34.168 366.831 33.576 366.831 32.808V29.4H371.391V32.952C371.391 34.872 370.799 36.424 369.615 37.608C368.431 38.76 366.831 39.336 364.815 39.336C363.567 39.336 362.511 39.128 361.647 38.712C360.815 38.296 360.095 37.768 359.487 37.128C358.911 36.488 358.383 35.848 357.903 35.208C357.455 34.568 356.975 34.04 356.463 33.624C355.983 33.176 355.423 32.952 354.783 32.952C354.111 32.952 353.599 33.16 353.247 33.576C352.895 33.96 352.719 34.552 352.719 35.352V38.76H348.159Z" fill="#000F94"/>
</svg>
