<svg viewBox="0 0 348 63" fill="none" xmlns="http://www.w3.org/2000/svg">
<path d="M14.64 49.48C12.624 49.48 10.864 49.08 9.36 48.28C7.888 47.48 6.736 46.344 5.904 44.872C5.104 43.4 4.704 41.672 4.704 39.688V23.272C4.704 21.256 5.104 19.512 5.904 18.04C6.736 16.568 7.888 15.448 9.36 14.68C10.864 13.88 12.624 13.48 14.64 13.48C16.688 13.48 18.448 13.896 19.92 14.728C21.424 15.56 22.576 16.728 23.376 18.232C24.208 19.736 24.624 21.512 24.624 23.56H21.456C21.456 21.288 20.848 19.512 19.632 18.232C18.416 16.952 16.752 16.312 14.64 16.312C12.56 16.312 10.912 16.936 9.696 18.184C8.48 19.4 7.872 21.096 7.872 23.272V39.688C7.872 41.864 8.48 43.576 9.696 44.824C10.912 46.04 12.56 46.648 14.64 46.648C16.784 46.648 18.448 46.008 19.632 44.728C20.848 43.416 21.456 41.64 21.456 39.4H24.624C24.624 41.448 24.208 43.224 23.376 44.728C22.576 46.232 21.424 47.4 19.92 48.232C18.448 49.064 16.688 49.48 14.64 49.48ZM43.1813 29.128C42.0613 29.128 41.1653 28.808 40.4933 28.168C39.8213 27.528 39.4853 26.68 39.4853 25.624C39.4853 24.568 39.8213 23.72 40.4933 23.08C41.1973 22.44 42.0933 22.12 43.1813 22.12C44.3013 22.12 45.1973 22.44 45.8693 23.08C46.5413 23.72 46.8773 24.568 46.8773 25.624C46.8773 26.68 46.5413 27.528 45.8693 28.168C45.1973 28.808 44.3013 29.128 43.1813 29.128ZM43.1813 49.48C42.0613 49.48 41.1653 49.16 40.4933 48.52C39.8213 47.88 39.4853 47.032 39.4853 45.976C39.4853 44.92 39.8213 44.072 40.4933 43.432C41.1973 42.792 42.0933 42.472 43.1813 42.472C44.3013 42.472 45.1973 42.792 45.8693 43.432C46.5413 44.072 46.8773 44.92 46.8773 45.976C46.8773 47.032 46.5413 47.88 45.8693 48.52C45.1973 49.16 44.3013 49.48 43.1813 49.48ZM78.8265 54.28L61.7385 9.16H65.0985L82.1865 54.28H78.8265ZM90.5678 45.448V42.232L104.92 34.888C105.56 34.568 106.2 34.248 106.84 33.928C107.512 33.608 108.04 33.368 108.424 33.208C108.04 33.048 107.512 32.824 106.84 32.536C106.168 32.216 105.528 31.896 104.92 31.576L90.5678 24.136V20.872L110.92 31.528V34.792L90.5678 45.448Z"/>
<path d="M121.944 49V13.96H125.112V29.416H137.688V13.96H140.856V49H137.688V32.296H125.112V49H121.944ZM158.357 49.48C155.605 49.48 153.413 48.76 151.781 47.32C150.181 45.88 149.381 43.976 149.381 41.608C149.381 39.24 150.149 37.368 151.685 35.992C153.253 34.616 155.317 33.928 157.877 33.928H166.565V31C166.565 29.08 166.021 27.592 164.933 26.536C163.877 25.48 162.357 24.952 160.373 24.952C158.581 24.952 157.093 25.368 155.909 26.2C154.757 27.032 154.085 28.152 153.893 29.56H150.725C151.013 27.32 152.037 25.528 153.797 24.184C155.589 22.808 157.781 22.12 160.373 22.12C163.221 22.12 165.493 22.92 167.189 24.52C168.885 26.12 169.733 28.264 169.733 30.952V49H166.613V43.768H166.085L166.805 42.904C166.805 44.888 166.037 46.488 164.501 47.704C162.965 48.888 160.917 49.48 158.357 49.48ZM159.173 46.84C161.381 46.84 163.157 46.28 164.501 45.16C165.877 44.04 166.565 42.6 166.565 40.84V36.472H157.877C156.277 36.472 154.981 36.92 153.989 37.816C153.029 38.712 152.549 39.896 152.549 41.368C152.549 43.032 153.141 44.36 154.325 45.352C155.541 46.344 157.157 46.84 159.173 46.84ZM179.507 49V22.6H182.675V27.352H183.683L182.483 29.224C182.483 27.016 183.139 25.288 184.451 24.04C185.795 22.76 187.603 22.12 189.875 22.12C192.499 22.12 194.595 22.952 196.163 24.616C197.731 26.248 198.515 28.488 198.515 31.336V49H195.347V31.72C195.347 29.544 194.787 27.864 193.667 26.68C192.547 25.464 191.027 24.856 189.107 24.856C187.123 24.856 185.555 25.48 184.403 26.728C183.251 27.976 182.675 29.704 182.675 31.912V49H179.507ZM216.736 49.48C214.112 49.48 212 48.616 210.4 46.888C208.8 45.128 208 42.776 208 39.832V31.816C208 28.872 208.8 26.52 210.4 24.76C212 23 214.112 22.12 216.736 22.12C219.008 22.12 220.832 22.76 222.208 24.04C223.616 25.288 224.32 26.952 224.32 29.032L223.168 26.776H224.08L224.032 21.352V13.96H227.2V49H224.032V44.824H222.88L224.32 42.568C224.32 44.68 223.616 46.36 222.208 47.608C220.832 48.856 219.008 49.48 216.736 49.48ZM217.6 46.744C219.648 46.744 221.232 46.12 222.352 44.872C223.472 43.624 224.032 41.912 224.032 39.736V31.912C224.032 29.704 223.472 27.976 222.352 26.728C221.232 25.48 219.648 24.856 217.6 24.856C215.584 24.856 214 25.48 212.848 26.728C211.728 27.944 211.168 29.672 211.168 31.912V39.736C211.168 41.944 211.728 43.672 212.848 44.92C214 46.136 215.584 46.744 217.6 46.744Z"/>
<rect x="347.939" y="57.1094" width="116.939" height="50" rx="10" transform="rotate(-179.946 347.939 57.1094)" fill="url(#paint0_radial_5_38)"/>
<path opacity="0.48" d="M248.656 49.48C246.48 49.48 244.752 48.872 243.472 47.656C242.192 46.408 241.552 44.712 241.552 42.568L242.896 43.96H241.552V49H235.696V13.96H241.696V21.352L241.504 27.64H242.896L241.552 29.032C241.552 26.888 242.192 25.208 243.472 23.992C244.752 22.744 246.48 22.12 248.656 22.12C251.312 22.12 253.44 23.032 255.04 24.856C256.64 26.68 257.44 29.144 257.44 32.248V39.4C257.44 42.472 256.64 44.92 255.04 46.744C253.44 48.568 251.312 49.48 248.656 49.48ZM246.544 44.296C248.08 44.296 249.28 43.848 250.144 42.952C251.008 42.056 251.44 40.776 251.44 39.112V32.488C251.44 30.824 251.008 29.544 250.144 28.648C249.28 27.752 248.08 27.304 246.544 27.304C245.04 27.304 243.856 27.768 242.992 28.696C242.128 29.592 241.696 30.856 241.696 32.488V39.112C241.696 40.744 242.128 42.024 242.992 42.952C243.856 43.848 245.04 44.296 246.544 44.296ZM275.181 49.432C272.941 49.432 270.989 49.016 269.325 48.184C267.693 47.32 266.413 46.12 265.485 44.584C264.589 43.016 264.141 41.176 264.141 39.064V32.536C264.141 30.424 264.589 28.6 265.485 27.064C266.413 25.496 267.693 24.296 269.325 23.464C270.989 22.6 272.941 22.168 275.181 22.168C277.453 22.168 279.405 22.6 281.037 23.464C282.669 24.296 283.933 25.496 284.829 27.064C285.757 28.6 286.221 30.408 286.221 32.488V39.064C286.221 41.176 285.757 43.016 284.829 44.584C283.933 46.12 282.669 47.32 281.037 48.184C279.405 49.016 277.453 49.432 275.181 49.432ZM275.181 44.2C276.781 44.2 278.013 43.768 278.877 42.904C279.773 42.008 280.221 40.728 280.221 39.064V32.536C280.221 30.84 279.773 29.56 278.877 28.696C278.013 27.832 276.781 27.4 275.181 27.4C273.613 27.4 272.381 27.832 271.485 28.696C270.589 29.56 270.141 30.84 270.141 32.536V39.064C270.141 40.728 270.589 42.008 271.485 42.904C272.381 43.768 273.613 44.2 275.181 44.2ZM303.963 49.432C301.723 49.432 299.771 49.016 298.107 48.184C296.475 47.32 295.195 46.12 294.267 44.584C293.371 43.016 292.923 41.176 292.923 39.064V32.536C292.923 30.424 293.371 28.6 294.267 27.064C295.195 25.496 296.475 24.296 298.107 23.464C299.771 22.6 301.723 22.168 303.963 22.168C306.235 22.168 308.187 22.6 309.819 23.464C311.451 24.296 312.715 25.496 313.611 27.064C314.539 28.6 315.003 30.408 315.003 32.488V39.064C315.003 41.176 314.539 43.016 313.611 44.584C312.715 46.12 311.451 47.32 309.819 48.184C308.187 49.016 306.235 49.432 303.963 49.432ZM303.963 44.2C305.563 44.2 306.795 43.768 307.659 42.904C308.555 42.008 309.003 40.728 309.003 39.064V32.536C309.003 30.84 308.555 29.56 307.659 28.696C306.795 27.832 305.563 27.4 303.963 27.4C302.395 27.4 301.163 27.832 300.267 28.696C299.371 29.56 298.923 30.84 298.923 32.536V39.064C298.923 40.728 299.371 42.008 300.267 42.904C301.163 43.768 302.395 44.2 303.963 44.2ZM322.184 49V13.96H328.184V32.968H332.36L338.792 22.6H345.512L337.544 35.368L345.656 49H338.792L332.36 38.056H328.184V49H322.184Z" fill="white"/>
<defs>
<radialGradient id="paint0_radial_5_38" cx="0" cy="0" r="1" gradientUnits="userSpaceOnUse" gradientTransform="translate(406.375 52.8865) rotate(90.4135) scale(61.2245 143.192)">
<stop offset="0.40625" stop-color="#548EAA"/>
<stop offset="1" stop-color="#548EAA" stop-opacity="0"/>
</radialGradient>
</defs>
</svg>
