<svg viewBox="0 0 356 63" fill="none" xmlns="http://www.w3.org/2000/svg">
<path d="M14.64 49.48C12.624 49.48 10.864 49.08 9.36 48.28C7.888 47.48 6.736 46.344 5.904 44.872C5.104 43.4 4.704 41.672 4.704 39.688V23.272C4.704 21.256 5.104 19.512 5.904 18.04C6.736 16.568 7.888 15.448 9.36 14.68C10.864 13.88 12.624 13.48 14.64 13.48C16.688 13.48 18.448 13.896 19.92 14.728C21.424 15.56 22.576 16.728 23.376 18.232C24.208 19.736 24.624 21.512 24.624 23.56H21.456C21.456 21.288 20.848 19.512 19.632 18.232C18.416 16.952 16.752 16.312 14.64 16.312C12.56 16.312 10.912 16.936 9.696 18.184C8.48 19.4 7.872 21.096 7.872 23.272V39.688C7.872 41.864 8.48 43.576 9.696 44.824C10.912 46.04 12.56 46.648 14.64 46.648C16.784 46.648 18.448 46.008 19.632 44.728C20.848 43.416 21.456 41.64 21.456 39.4H24.624C24.624 41.448 24.208 43.224 23.376 44.728C22.576 46.232 21.424 47.4 19.92 48.232C18.448 49.064 16.688 49.48 14.64 49.48ZM43.1813 29.128C42.0613 29.128 41.1653 28.808 40.4933 28.168C39.8213 27.528 39.4853 26.68 39.4853 25.624C39.4853 24.568 39.8213 23.72 40.4933 23.08C41.1973 22.44 42.0933 22.12 43.1813 22.12C44.3013 22.12 45.1973 22.44 45.8693 23.08C46.5413 23.72 46.8773 24.568 46.8773 25.624C46.8773 26.68 46.5413 27.528 45.8693 28.168C45.1973 28.808 44.3013 29.128 43.1813 29.128ZM43.1813 49.48C42.0613 49.48 41.1653 49.16 40.4933 48.52C39.8213 47.88 39.4853 47.032 39.4853 45.976C39.4853 44.92 39.8213 44.072 40.4933 43.432C41.1973 42.792 42.0933 42.472 43.1813 42.472C44.3013 42.472 45.1973 42.792 45.8693 43.432C46.5413 44.072 46.8773 44.92 46.8773 45.976C46.8773 47.032 46.5413 47.88 45.8693 48.52C45.1973 49.16 44.3013 49.48 43.1813 49.48ZM78.8265 54.28L61.7385 9.16H65.0985L82.1865 54.28H78.8265ZM90.5678 45.448V42.232L104.92 34.888C105.56 34.568 106.2 34.248 106.84 33.928C107.512 33.608 108.04 33.368 108.424 33.208C108.04 33.048 107.512 32.824 106.84 32.536C106.168 32.216 105.528 31.896 104.92 31.576L90.5678 24.136V20.872L110.92 31.528V34.792L90.5678 45.448Z"/>
<path d="M128.944 49V13.96H132.112V29.416H144.688V13.96H147.856V49H144.688V32.296H132.112V49H128.944ZM165.357 49.48C162.605 49.48 160.413 48.76 158.781 47.32C157.181 45.88 156.381 43.976 156.381 41.608C156.381 39.24 157.149 37.368 158.685 35.992C160.253 34.616 162.317 33.928 164.877 33.928H173.565V31C173.565 29.08 173.021 27.592 171.933 26.536C170.877 25.48 169.357 24.952 167.373 24.952C165.581 24.952 164.093 25.368 162.909 26.2C161.757 27.032 161.085 28.152 160.893 29.56H157.725C158.013 27.32 159.037 25.528 160.797 24.184C162.589 22.808 164.781 22.12 167.373 22.12C170.221 22.12 172.493 22.92 174.189 24.52C175.885 26.12 176.733 28.264 176.733 30.952V49H173.613V43.768H173.085L173.805 42.904C173.805 44.888 173.037 46.488 171.501 47.704C169.965 48.888 167.917 49.48 165.357 49.48ZM166.173 46.84C168.381 46.84 170.157 46.28 171.501 45.16C172.877 44.04 173.565 42.6 173.565 40.84V36.472H164.877C163.277 36.472 161.981 36.92 160.989 37.816C160.029 38.712 159.549 39.896 159.549 41.368C159.549 43.032 160.141 44.36 161.325 45.352C162.541 46.344 164.157 46.84 166.173 46.84ZM186.507 49V22.6H189.675V27.352H190.683L189.483 29.224C189.483 27.016 190.139 25.288 191.451 24.04C192.795 22.76 194.603 22.12 196.875 22.12C199.499 22.12 201.595 22.952 203.163 24.616C204.731 26.248 205.515 28.488 205.515 31.336V49H202.347V31.72C202.347 29.544 201.787 27.864 200.667 26.68C199.547 25.464 198.027 24.856 196.107 24.856C194.123 24.856 192.555 25.48 191.403 26.728C190.251 27.976 189.675 29.704 189.675 31.912V49H186.507ZM223.736 49.48C221.112 49.48 219 48.616 217.4 46.888C215.8 45.128 215 42.776 215 39.832V31.816C215 28.872 215.8 26.52 217.4 24.76C219 23 221.112 22.12 223.736 22.12C226.008 22.12 227.832 22.76 229.208 24.04C230.616 25.288 231.32 26.952 231.32 29.032L230.168 26.776H231.08L231.032 21.352V13.96H234.2V49H231.032V44.824H229.88L231.32 42.568C231.32 44.68 230.616 46.36 229.208 47.608C227.832 48.856 226.008 49.48 223.736 49.48ZM224.6 46.744C226.648 46.744 228.232 46.12 229.352 44.872C230.472 43.624 231.032 41.912 231.032 39.736V31.912C231.032 29.704 230.472 27.976 229.352 26.728C228.232 25.48 226.648 24.856 224.6 24.856C222.584 24.856 221 25.48 219.848 26.728C218.728 27.944 218.168 29.672 218.168 31.912V39.736C218.168 41.944 218.728 43.672 219.848 44.92C221 46.136 222.584 46.744 224.6 46.744Z"/>
<rect x="354.939" y="57.1094" width="116.939" height="50" rx="10" transform="rotate(-179.946 354.939 57.1094)" fill="url(#paint0_radial_14_13)"/>
<path d="M256.656 49.48C254.48 49.48 252.752 48.872 251.472 47.656C250.192 46.408 249.552 44.712 249.552 42.568L250.896 43.96H249.552V49H243.696V13.96H249.696V21.352L249.504 27.64H250.896L249.552 29.032C249.552 26.888 250.192 25.208 251.472 23.992C252.752 22.744 254.48 22.12 256.656 22.12C259.312 22.12 261.44 23.032 263.04 24.856C264.64 26.68 265.44 29.144 265.44 32.248V39.4C265.44 42.472 264.64 44.92 263.04 46.744C261.44 48.568 259.312 49.48 256.656 49.48ZM254.544 44.296C256.08 44.296 257.28 43.848 258.144 42.952C259.008 42.056 259.44 40.776 259.44 39.112V32.488C259.44 30.824 259.008 29.544 258.144 28.648C257.28 27.752 256.08 27.304 254.544 27.304C253.04 27.304 251.856 27.768 250.992 28.696C250.128 29.592 249.696 30.856 249.696 32.488V39.112C249.696 40.744 250.128 42.024 250.992 42.952C251.856 43.848 253.04 44.296 254.544 44.296ZM283.181 49.432C280.941 49.432 278.989 49.016 277.325 48.184C275.693 47.32 274.413 46.12 273.485 44.584C272.589 43.016 272.141 41.176 272.141 39.064V32.536C272.141 30.424 272.589 28.6 273.485 27.064C274.413 25.496 275.693 24.296 277.325 23.464C278.989 22.6 280.941 22.168 283.181 22.168C285.453 22.168 287.405 22.6 289.037 23.464C290.669 24.296 291.933 25.496 292.829 27.064C293.757 28.6 294.221 30.408 294.221 32.488V39.064C294.221 41.176 293.757 43.016 292.829 44.584C291.933 46.12 290.669 47.32 289.037 48.184C287.405 49.016 285.453 49.432 283.181 49.432ZM283.181 44.2C284.781 44.2 286.013 43.768 286.877 42.904C287.773 42.008 288.221 40.728 288.221 39.064V32.536C288.221 30.84 287.773 29.56 286.877 28.696C286.013 27.832 284.781 27.4 283.181 27.4C281.613 27.4 280.381 27.832 279.485 28.696C278.589 29.56 278.141 30.84 278.141 32.536V39.064C278.141 40.728 278.589 42.008 279.485 42.904C280.381 43.768 281.613 44.2 283.181 44.2ZM311.963 49.432C309.723 49.432 307.771 49.016 306.107 48.184C304.475 47.32 303.195 46.12 302.267 44.584C301.371 43.016 300.923 41.176 300.923 39.064V32.536C300.923 30.424 301.371 28.6 302.267 27.064C303.195 25.496 304.475 24.296 306.107 23.464C307.771 22.6 309.723 22.168 311.963 22.168C314.235 22.168 316.187 22.6 317.819 23.464C319.451 24.296 320.715 25.496 321.611 27.064C322.539 28.6 323.003 30.408 323.003 32.488V39.064C323.003 41.176 322.539 43.016 321.611 44.584C320.715 46.12 319.451 47.32 317.819 48.184C316.187 49.016 314.235 49.432 311.963 49.432ZM311.963 44.2C313.563 44.2 314.795 43.768 315.659 42.904C316.555 42.008 317.003 40.728 317.003 39.064V32.536C317.003 30.84 316.555 29.56 315.659 28.696C314.795 27.832 313.563 27.4 311.963 27.4C310.395 27.4 309.163 27.832 308.267 28.696C307.371 29.56 306.923 30.84 306.923 32.536V39.064C306.923 40.728 307.371 42.008 308.267 42.904C309.163 43.768 310.395 44.2 311.963 44.2ZM330.184 49V13.96H336.184V32.968H340.36L346.792 22.6H353.512L345.544 35.368L353.656 49H346.792L340.36 38.056H336.184V49H330.184Z" fill="white"/>
<defs>
<radialGradient id="paint0_radial_14_13" cx="0" cy="0" r="1" gradientUnits="userSpaceOnUse" gradientTransform="translate(413.375 52.8865) rotate(90.4135) scale(61.2245 143.192)">
<stop offset="0.40625" stop-color="#548EAA"/>
<stop offset="1" stop-color="#548EAA" stop-opacity="0"/>
</radialGradient>
</defs>
</svg>
