<svg viewBox="0 0 237 63" fill="none" xmlns="http://www.w3.org/2000/svg">
<path d="M4.944 49V13.96H8.112V29.416H20.688V13.96H23.856V49H20.688V32.296H8.112V49H4.944ZM41.3573 49.48C38.6053 49.48 36.4133 48.76 34.7812 47.32C33.1813 45.88 32.3813 43.976 32.3813 41.608C32.3813 39.24 33.1493 37.368 34.6853 35.992C36.2533 34.616 38.3173 33.928 40.8773 33.928H49.5653V31C49.5653 29.08 49.0213 27.592 47.9333 26.536C46.8773 25.48 45.3573 24.952 43.3733 24.952C41.5813 24.952 40.0933 25.368 38.9093 26.2C37.7573 27.032 37.0853 28.152 36.8933 29.56H33.7253C34.0133 27.32 35.0373 25.528 36.7973 24.184C38.5893 22.808 40.7813 22.12 43.3733 22.12C46.2213 22.12 48.4933 22.92 50.1893 24.52C51.8853 26.12 52.7333 28.264 52.7333 30.952V49H49.6133V43.768H49.0853L49.8053 42.904C49.8053 44.888 49.0373 46.488 47.5013 47.704C45.9653 48.888 43.9173 49.48 41.3573 49.48ZM42.1733 46.84C44.3813 46.84 46.1573 46.28 47.5013 45.16C48.8773 44.04 49.5653 42.6 49.5653 40.84V36.472H40.8773C39.2773 36.472 37.9813 36.92 36.9893 37.816C36.0293 38.712 35.5493 39.896 35.5493 41.368C35.5493 43.032 36.1413 44.36 37.3253 45.352C38.5413 46.344 40.1573 46.84 42.1733 46.84ZM62.5065 49V22.6H65.6745V27.352H66.6825L65.4825 29.224C65.4825 27.016 66.1385 25.288 67.4505 24.04C68.7945 22.76 70.6025 22.12 72.8745 22.12C75.4985 22.12 77.5945 22.952 79.1625 24.616C80.7305 26.248 81.5145 28.488 81.5145 31.336V49H78.3465V31.72C78.3465 29.544 77.7865 27.864 76.6665 26.68C75.5465 25.464 74.0265 24.856 72.1065 24.856C70.1225 24.856 68.5545 25.48 67.4025 26.728C66.2505 27.976 65.6745 29.704 65.6745 31.912V49H62.5065ZM99.7358 49.48C97.1118 49.48 94.9998 48.616 93.3997 46.888C91.7998 45.128 90.9998 42.776 90.9998 39.832V31.816C90.9998 28.872 91.7998 26.52 93.3997 24.76C94.9998 23 97.1118 22.12 99.7358 22.12C102.008 22.12 103.832 22.76 105.208 24.04C106.616 25.288 107.32 26.952 107.32 29.032L106.168 26.776H107.08L107.032 21.352V13.96H110.2V49H107.032V44.824H105.88L107.32 42.568C107.32 44.68 106.616 46.36 105.208 47.608C103.832 48.856 102.008 49.48 99.7358 49.48ZM100.6 46.744C102.648 46.744 104.232 46.12 105.352 44.872C106.472 43.624 107.032 41.912 107.032 39.736V31.912C107.032 29.704 106.472 27.976 105.352 26.728C104.232 25.48 102.648 24.856 100.6 24.856C98.5838 24.856 96.9998 25.48 95.8478 26.728C94.7278 27.944 94.1678 29.672 94.1678 31.912V39.736C94.1678 41.944 94.7278 43.672 95.8478 44.92C96.9998 46.136 98.5838 46.744 100.6 46.744Z"/>
<rect x="236" y="57.1122" width="120" height="50" rx="10" transform="rotate(-179.946 236 57.1122)" fill="#548EAA"/>
<path d="M134.656 49.48C132.48 49.48 130.752 48.872 129.472 47.656C128.192 46.408 127.552 44.712 127.552 42.568L128.896 43.96H127.552V49H121.696V13.96H127.696V21.352L127.504 27.64H128.896L127.552 29.032C127.552 26.888 128.192 25.208 129.472 23.992C130.752 22.744 132.48 22.12 134.656 22.12C137.312 22.12 139.44 23.032 141.04 24.856C142.64 26.68 143.44 29.144 143.44 32.248V39.4C143.44 42.472 142.64 44.92 141.04 46.744C139.44 48.568 137.312 49.48 134.656 49.48ZM132.544 44.296C134.08 44.296 135.28 43.848 136.144 42.952C137.008 42.056 137.44 40.776 137.44 39.112V32.488C137.44 30.824 137.008 29.544 136.144 28.648C135.28 27.752 134.08 27.304 132.544 27.304C131.04 27.304 129.856 27.768 128.992 28.696C128.128 29.592 127.696 30.856 127.696 32.488V39.112C127.696 40.744 128.128 42.024 128.992 42.952C129.856 43.848 131.04 44.296 132.544 44.296ZM161.181 49.432C158.941 49.432 156.989 49.016 155.325 48.184C153.693 47.32 152.413 46.12 151.485 44.584C150.589 43.016 150.141 41.176 150.141 39.064V32.536C150.141 30.424 150.589 28.6 151.485 27.064C152.413 25.496 153.693 24.296 155.325 23.464C156.989 22.6 158.941 22.168 161.181 22.168C163.453 22.168 165.405 22.6 167.037 23.464C168.669 24.296 169.933 25.496 170.829 27.064C171.757 28.6 172.221 30.408 172.221 32.488V39.064C172.221 41.176 171.757 43.016 170.829 44.584C169.933 46.12 168.669 47.32 167.037 48.184C165.405 49.016 163.453 49.432 161.181 49.432ZM161.181 44.2C162.781 44.2 164.013 43.768 164.877 42.904C165.773 42.008 166.221 40.728 166.221 39.064V32.536C166.221 30.84 165.773 29.56 164.877 28.696C164.013 27.832 162.781 27.4 161.181 27.4C159.613 27.4 158.381 27.832 157.485 28.696C156.589 29.56 156.141 30.84 156.141 32.536V39.064C156.141 40.728 156.589 42.008 157.485 42.904C158.381 43.768 159.613 44.2 161.181 44.2ZM189.963 49.432C187.723 49.432 185.771 49.016 184.107 48.184C182.475 47.32 181.195 46.12 180.267 44.584C179.371 43.016 178.923 41.176 178.923 39.064V32.536C178.923 30.424 179.371 28.6 180.267 27.064C181.195 25.496 182.475 24.296 184.107 23.464C185.771 22.6 187.723 22.168 189.963 22.168C192.235 22.168 194.187 22.6 195.819 23.464C197.451 24.296 198.715 25.496 199.611 27.064C200.539 28.6 201.003 30.408 201.003 32.488V39.064C201.003 41.176 200.539 43.016 199.611 44.584C198.715 46.12 197.451 47.32 195.819 48.184C194.187 49.016 192.235 49.432 189.963 49.432ZM189.963 44.2C191.563 44.2 192.795 43.768 193.659 42.904C194.555 42.008 195.003 40.728 195.003 39.064V32.536C195.003 30.84 194.555 29.56 193.659 28.696C192.795 27.832 191.563 27.4 189.963 27.4C188.395 27.4 187.163 27.832 186.267 28.696C185.371 29.56 184.923 30.84 184.923 32.536V39.064C184.923 40.728 185.371 42.008 186.267 42.904C187.163 43.768 188.395 44.2 189.963 44.2ZM208.184 49V13.96H214.184V32.968H218.36L224.792 22.6H231.512L223.544 35.368L231.656 49H224.792L218.36 38.056H214.184V49H208.184Z" fill="white"/>
</svg>
